<svg xmlns="http://www.w3.org/2000/svg" width="800" height="1000" viewBox="0 0 800 1000" role="img" aria-label="5A=0O B@>?0">
  <rect width="800" height="1000" fill="#e9f7ef" />
  <rect x="0" y="640" width="800" height="360" fill="#c7e8c4" />
  <path d="M0 700 C120 640 220 720 340 690 C460 660 560 720 680 700 C740 690 780 660 800 640 L800 1000 L0 1000 Z" fill="#b0d7a3" />
  <path d="M160 720 L260 520 L360 720 Z" fill="#4d8a5a" />
  <path d="M240 720 L340 500 L440 720 Z" fill="#3f7b51" />
  <path d="M430 720 L530 520 L630 720 Z" fill="#4d8a5a" />
  <path d="M110 720 L180 560 L250 720 Z" fill="#3f7b51" />
  <rect x="0" y="0" width="800" height="1000" fill="none" stroke="#2f5f3a" stroke-width="10" />
</svg>
