<svg xmlns="http://www.w3.org/2000/svg" width="800" height="1000" viewBox="0 0 800 1000" role="img" aria-label=""@>?8=:0 C @CGLO">
  <rect width="800" height="1000" fill="#eef9f3" />
  <path d="M0 740 C140 720 220 760 360 740 C520 720 620 760 800 720 L800 1000 L0 1000 Z" fill="#c4e6c8" />
  <path d="M0 560 C140 520 260 620 420 580 C560 540 660 580 800 560 L800 740 C640 800 480 770 320 800 C200 820 100 840 0 820 Z" fill="#9fd1d6" />
  <path d="M160 740 L240 560 L320 740 Z" fill="#3e7f56" />
  <path d="M320 740 L400 540 L480 740 Z" fill="#2f6f4b" />
  <path d="M520 740 L600 560 L680 740 Z" fill="#3e7f56" />
  <rect x="0" y="0" width="800" height="1000" fill="none" stroke="#4f7f6a" stroke-width="10" />
</svg>
