<svg xmlns="http://www.w3.org/2000/svg" width="1200" height="700" viewBox="0 0 1200 700" role="img" aria-label="!E5<0B8G=0O :0@B0">
  <defs>
    <linearGradient id="bg" x1="0" x2="0" y1="0" y2="1">
      <stop offset="0%" stop-color="#d8ecff" />
      <stop offset="100%" stop-color="#f4fbff" />
    </linearGradient>
    <linearGradient id="sea" x1="0" x2="1" y1="0" y2="1">
      <stop offset="0%" stop-color="#9dd6ff" />
      <stop offset="100%" stop-color="#6fb8ff" />
    </linearGradient>
  </defs>
  <rect width="1200" height="700" fill="url(#bg)" />
  <path
    d="M0 520 C200 480 320 560 500 520 C650 490 760 420 920 440 C1050 455 1120 520 1200 500 L1200 700 L0 700 Z"
    fill="url(#sea)"
    opacity="0.9"
  />
  <path
    d="M120 160 C260 120 340 160 460 140 C560 120 620 70 740 90 C860 110 940 170 1040 150 C1100 140 1140 110 1180 90 L1180 260 C1040 300 920 260 820 300 C720 340 620 400 480 380 C300 360 260 300 140 320 Z"
    fill="#b7e4b0"
    stroke="#7abf73"
    stroke-width="4"
  />
  <path
    d="M210 430 C320 400 420 430 520 420 C620 410 680 350 800 360 C920 370 1000 420 1090 400 L1090 520 C980 560 820 540 700 560 C540 590 420 610 260 580 Z"
    fill="#d7e8b2"
    stroke="#a1c36b"
    stroke-width="4"
  />
  <circle cx="230" cy="240" r="18" fill="#7abf73" />
  <circle cx="820" cy="220" r="12" fill="#7abf73" />
  <circle cx="520" cy="470" r="16" fill="#a1c36b" />
  <circle cx="910" cy="470" r="10" fill="#a1c36b" />
</svg>
